HIERARCHY
ROOT RootJoint
{
    OFFSET   0.000000   0.000000   0.000000
    CHANNELS 6 Xposition Yposition Zposition Xrotation Yrotation Zrotation
    JOINT pelvis_lowerback
    {
        OFFSET   0.000000   0.093605   0.000000
        CHANNELS 3 Xrotation Yrotation Zrotation
        JOINT lowerback_torso
        {
            OFFSET   0.000000   0.100000   0.000000
            CHANNELS 3 Xrotation Yrotation Zrotation
            JOINT torso_head
            {
                OFFSET   0.000000   0.282350   0.000000
                CHANNELS 3 Xrotation Yrotation Zrotation
                End Site
                {
                    OFFSET   0.000000   0.192650   0.000000
                }
            }
            JOINT rTorso_Clavicle
            {
                OFFSET  -0.001000   0.157500   0.000000
                CHANNELS 3 Xrotation Yrotation Zrotation
                JOINT rShoulder
                {
                    OFFSET  -0.117647   0.000000   0.000000
                    CHANNELS 3 Xrotation Yrotation Zrotation
                    JOINT rElbow
                    {
                        OFFSET  -0.245000   0.000000   0.000000
                        CHANNELS 3 Xrotation Yrotation Zrotation
                        JOINT rWrist
                        {
                            OFFSET  -0.240000   0.000000   0.000000
                            CHANNELS 3 Xrotation Yrotation Zrotation
                            End Site
                            {
                                OFFSET  -0.116353  -0.002500   0.000000
                            }
                        }
                    }
                }
            }
            JOINT lTorso_Clavicle
            {
                OFFSET   0.001000   0.157500   0.000000
                CHANNELS 3 Xrotation Yrotation Zrotation
                JOINT lShoulder
                {
                    OFFSET   0.117647   0.000000   0.000000
                    CHANNELS 3 Xrotation Yrotation Zrotation
                    JOINT lElbow
                    {
                        OFFSET   0.245000   0.000000   0.000000
                        CHANNELS 3 Xrotation Yrotation Zrotation
                        JOINT lWrist
                        {
                            OFFSET   0.240000   0.000000   0.000000
                            CHANNELS 3 Xrotation Yrotation Zrotation
                            End Site
                            {
                                OFFSET   0.116353  -0.002500   0.000000
                            }
                        }
                    }
                }
            }
        }
    }
    JOINT rHip
    {
        OFFSET  -0.100000  -0.051395   0.000000
        CHANNELS 3 Xrotation Yrotation Zrotation
        JOINT rKnee
        {
            OFFSET   0.000000  -0.410000   0.000000
            CHANNELS 3 Xrotation Yrotation Zrotation
            JOINT rAnkle
            {
                OFFSET   0.000000  -0.390000   0.000000
                CHANNELS 3 Xrotation Yrotation Zrotation
                JOINT rToeJoint
                {
                    OFFSET   0.000000  -0.050000   0.130000
                    CHANNELS 3 Xrotation Yrotation Zrotation
                    End Site
                    {
                        OFFSET  -0.010000   0.002000   0.060000
                    }
                }
            }
        }
    }
    JOINT lHip
    {
        OFFSET   0.100000  -0.051395   0.000000
        CHANNELS 3 Xrotation Yrotation Zrotation
        JOINT lKnee
        {
            OFFSET   0.000000  -0.410000   0.000000
            CHANNELS 3 Xrotation Yrotation Zrotation
            JOINT lAnkle
            {
                OFFSET   0.000000  -0.390000   0.000000
                CHANNELS 3 Xrotation Yrotation Zrotation
                JOINT lToeJoint
                {
                    OFFSET   0.000000  -0.050000   0.130000
                    CHANNELS 3 Xrotation Yrotation Zrotation
                    End Site
                    {
                        OFFSET   0.010000   0.002000   0.060000
                    }
                }
            }
        }
    }
}
MOTION
Frames: 11
Frame Time:   0.008333
 -2.376719   0.925631   3.975860   0.000000   0.000000   0.000000   0.000000   0.000000   0.000000   0.000000   0.000000   0.000000   0.000000   0.000000   0.000000   0.000000   0.000000   0.000000   0.000000   0.000000   0.000000   0.000000   0.000000   0.000000   0.000000   0.000000   0.000000   0.000000   0.000000   0.000000   0.000000   0.000000   0.000000   0.000000   0.000000   0.000000   0.000000   0.000000   0.000000   0.000000   0.000000   0.000000   0.000000   0.000000   0.000000   0.000000   0.000000   0.000000   0.000000   0.000000   0.000000   0.000000   0.000000   0.000000   0.000000   0.000000   0.000000   0.000000   0.000000   0.000000   0.000000   0.000000   0.000000
 -2.376448   0.925244   3.973844  -0.486763   0.489480  -0.044432   0.871015  -0.129148   0.058740   0.106173  -0.217831   0.152092  -0.047601  -0.283675  -0.016300  -0.362209  -0.251827  -0.312218  -1.854890  -0.374308   1.028467   0.025543   3.540528   0.052705  -0.073625  -1.678720  -1.054517  -0.282048   0.260376   0.178068   0.162679  -0.517321  -1.706960   0.041284  -3.417459   0.012409   0.033081   1.918058   1.271994  -0.424577  -0.683214  -0.268437   2.038213   0.005410  -0.003581  -0.991025  -0.043043   0.271792  -0.044438  -0.000015   0.000092  -0.648637   0.018275   0.321978   3.219722  -0.007405   0.014571  -2.436483   0.369180   0.028659   0.047554  -0.000131   0.000363
 -2.376126   0.924559   3.971232  -1.173117   1.066665  -0.078394   1.846472  -0.305628   0.147524   0.414106  -0.515714   0.308576  -0.026011  -0.553075  -0.000947  -0.713671  -0.313172  -0.353015  -3.602149  -0.565033   2.188241   0.055197   7.228565   0.089995  -0.200887  -2.347261  -1.756731  -0.541631   0.214029  -0.036861   0.281922  -1.295189  -3.616624   0.096543  -7.019659   0.027204   0.076490   2.677447   2.040102  -0.877822  -1.345405  -0.800701   4.178447   0.014336  -0.005400  -1.902240  -0.095059   0.521125  -0.072488  -0.000085   0.000111  -1.135416   0.068824   0.894947   6.734897  -0.019810   0.033052  -4.700142   0.727673   0.072087   0.049511  -0.000115   0.000307
 -2.375817   0.923376   3.968276  -1.895748   1.648273  -0.090067   2.820680  -0.519126   0.236636   0.778862  -0.850691   0.448893   0.003538  -0.803473   0.026968  -1.039654  -0.211761  -0.196427  -5.232890  -0.649479   3.414464   0.082926  10.940048   0.115482  -0.319275  -2.561393  -2.124293  -0.783333  -0.050201  -0.491348   0.354147  -2.200307  -5.588128   0.154625 -10.694503   0.041210   0.129280   2.873722   2.379783  -1.426820  -1.961290  -1.553639   6.177161   0.023926  -0.007015  -2.750117  -0.150664   0.750751  -0.089455  -0.000142   0.000110  -1.482589   0.126383   1.672580  10.106181  -0.033285   0.050042  -6.805856   1.066687   0.128336   0.072272  -0.000251   0.000448
 -2.375536   0.921559   3.965124  -2.609290   2.213111  -0.079793   3.775345  -0.756609   0.314457   1.156742  -1.201378   0.567762   0.026531  -1.037568   0.058984  -1.343283   0.011491   0.086061  -6.754623  -0.662043   4.664410   0.103685  14.449083   0.130222  -0.425691  -2.463793  -2.243792  -1.012531  -0.460837  -1.085464   0.380977  -3.172710  -7.553683   0.210025 -14.416007   0.054271   0.187309   2.756614   2.423986  -2.076256  -2.527184  -2.483348   8.003711   0.032628  -0.008861  -3.542400  -0.208723   0.962405  -0.107747  -0.000218   0.000112  -1.724442   0.181040   2.616605  13.281801  -0.045946   0.064741  -8.770488   1.384962   0.194920   0.093415  -0.000381   0.000547
 -2.375282   0.919011   3.961900  -3.299199   2.751666  -0.050711   4.704109  -1.010129   0.377091   1.535931  -1.559830   0.663872   0.042206  -1.256273   0.091542  -1.626914   0.308185   0.440893  -8.173686  -0.642171   5.904603   0.116920  17.748958   0.137163  -0.524799  -2.213997  -2.197701  -1.233157  -0.962185  -1.755994   0.366371  -4.170564  -9.473930   0.260082 -18.168946   0.066602   0.246674   2.449971   2.272440  -2.811635  -3.038940  -3.549939   9.665534   0.039713  -0.010900  -4.283244  -0.268061   1.157622  -0.128385  -0.000314   0.000121  -1.879858   0.228414   3.693269  16.264173  -0.056828   0.077049 -10.604540   1.682509   0.269586   0.110320  -0.000470   0.000586
 -2.375316   0.916714   3.958963  -3.936999   3.102570  -0.048177   5.557602  -1.212199   0.409973   1.903832  -1.871324   0.746802   0.055084  -1.458760   0.125546  -1.890465   0.653236   0.912105  -9.493427  -0.609912   7.153777   0.125406  20.846507   0.139505  -0.616769  -1.868229  -2.039560  -1.440656  -1.484181  -2.521476   0.320089  -5.144623 -11.351381   0.306843 -21.935770   0.077432   0.305324   2.052472   2.009167  -3.469856  -3.770983  -4.081994  11.881781   0.038522  -0.020721  -4.625112  -0.462824   1.615114  -0.212808  -0.000229   0.000630  -1.916854   0.277272   4.923240  19.036534  -0.066539   0.083342 -12.314086   1.961262   0.352488   0.147463  -0.000781   0.000742
 -2.375300   0.914237   3.955995  -4.235257   3.228539  -0.059030   6.265493  -1.326606   0.428240   1.937510  -2.092478   0.815954  -0.007162  -1.821299   0.164369  -2.143810   0.833118   1.311884 -10.988019  -0.522022   8.366550   0.122583  23.951269   0.152318  -0.687877  -1.626927  -1.559979  -1.492975  -1.820271  -2.990323   0.242065  -6.304771 -13.356787   0.342947 -25.724097   0.089238   0.387734   1.630653   1.304922  -4.561544  -4.638156  -4.383974  14.081421   0.030507  -0.034649  -4.629110  -0.708940   1.912863  -0.206299  -0.000194   0.000438  -2.016497   0.381723   6.176035  20.996666  -0.068739   0.080229 -13.562035   2.327035   0.187661   0.333859  -0.002287   0.001869
 -2.375050   0.912165   3.952811  -4.398618   3.643573  -0.100506   6.928004  -1.583792   0.516508   1.911748  -2.413046   0.905816  -0.095687  -2.169947   0.201228  -2.382608   0.979673   1.678210 -12.384845  -0.478683   9.483006   0.114684  26.851100   0.157788  -0.766167  -1.361471  -1.129895  -1.545699  -2.203568  -3.444392   0.129665  -7.436637 -15.245815   0.370985 -29.529903   0.101662   0.463521   1.143797   0.539850  -5.518156  -5.113191  -4.539011  16.005923   0.023863  -0.031353  -5.460423  -0.545096   2.321540  -0.326885   0.000227   0.000349  -2.252862   0.422823   7.447292  22.708493  -0.067065   0.079857 -14.726487   2.669351   0.040077   0.531709  -0.003560   0.003250
 -2.374425   0.910179   3.949466  -4.494961   4.103516  -0.072493   7.569413  -1.852430   0.581487   1.888228  -2.755036   0.977000  -0.184308  -2.494943   0.235727  -2.605322   1.116839   1.985123 -13.688124  -0.461500  10.504785   0.103618  29.557501   0.156973  -0.842538  -1.108258  -0.751923  -1.602455  -2.608651  -3.847377  -0.012551  -8.523625 -17.005528   0.392072 -33.346491   0.115538   0.531777   0.619496  -0.207178  -6.450194  -5.554836  -4.791415  17.714222   0.019141  -0.027130  -6.175452  -0.454583   2.630629  -0.411344   0.000358   0.000279  -2.510499   0.462585   8.610741  24.263035  -0.063656   0.078784 -15.816475   2.992298  -0.090659   0.702507  -0.004293   0.004166
 -2.373478   0.908212   3.946022  -4.549335   4.553877  -0.005724   8.196733  -2.116047   0.643999   1.880694  -3.093436   1.035484  -0.265743  -2.797659   0.266836  -2.815837   1.251177   2.235385 -14.906619  -0.459145  11.434482   0.091223  32.085356   0.151819  -0.914843  -0.860606  -0.437807  -1.663316  -3.015424  -4.202481  -0.178845  -9.555038 -18.640704   0.408276 -37.169762   0.130855   0.593991   0.081095  -0.902897  -7.374266  -5.957999  -5.111331  19.284893   0.015768  -0.023273  -6.805203  -0.383051   2.897714  -0.475283   0.000385   0.000224  -2.751342   0.497866   9.701286  25.702981  -0.059663   0.076648 -16.835269   3.295369  -0.206388   0.852749  -0.004681   0.004670
